<svg width="13" height="13" viewBox="0 0 13 13" fill="none" xmlns="http://www.w3.org/2000/svg">
<path d="M9.875 12.7501C7.32331 12.7468 4.87707 11.7316 3.07275 9.92732C1.26843 8.123 0.253307 5.67676 0.25 3.12507C0.25 2.36257 0.552901 1.63131 1.09207 1.09214C1.63124 0.552972 2.3625 0.250071 3.125 0.250071C3.28646 0.248842 3.44766 0.263495 3.60625 0.293821C3.75957 0.316509 3.91029 0.35419 4.05625 0.406321C4.15891 0.44234 4.25038 0.50453 4.32163 0.586742C4.39288 0.668953 4.44144 0.768339 4.4625 0.875071L5.31875 4.62507C5.34183 4.72686 5.33905 4.83281 5.31067 4.93325C5.28228 5.03369 5.22919 5.12542 5.15625 5.20007C5.075 5.28757 5.06875 5.29382 4.3 5.69382C4.91562 7.04436 5.99575 8.12892 7.34375 8.75007C7.75 7.97507 7.75625 7.96882 7.84375 7.88757C7.9184 7.81463 8.01013 7.76154 8.11057 7.73316C8.21101 7.70477 8.31696 7.70199 8.41875 7.72507L12.1687 8.58132C12.2721 8.60529 12.3676 8.65516 12.4463 8.72623C12.525 8.7973 12.5844 8.88724 12.6188 8.98757C12.6715 9.13592 12.7112 9.28858 12.7375 9.44382C12.7627 9.6009 12.7752 9.75974 12.775 9.91882C12.7635 10.6781 12.4521 11.4019 11.9087 11.9324C11.3654 12.4628 10.6343 12.7568 9.875 12.7501ZM3.125 1.50007C2.69453 1.50172 2.28216 1.67345 1.97777 1.97784C1.67338 2.28223 1.50165 2.6946 1.5 3.12507C1.50166 5.34575 2.38455 7.475 3.95481 9.04526C5.52507 10.6155 7.65432 11.4984 9.875 11.5001C10.3055 11.4984 10.7178 11.3267 11.0222 11.0223C11.3266 10.7179 11.4984 10.3055 11.5 9.87507V9.66882L8.6 9.00007L8.41875 9.34382C8.1375 9.88757 7.93125 10.2813 7.40625 10.0688C6.37055 9.69811 5.43044 9.10134 4.65421 8.32187C3.87798 7.5424 3.28514 6.59981 2.91875 5.56257C2.69375 5.07507 3.11875 4.85007 3.65625 4.56882L4 4.40007L3.33125 1.50007H3.125Z" fill="#7A7A7A"/>
</svg>
