<svg width="15" height="15" viewBox="0 0 15 15" fill="none" xmlns="http://www.w3.org/2000/svg">
<path d="M7.5 8.75C8.87875 8.75 10 7.62875 10 6.25C10 4.87125 8.87875 3.75 7.5 3.75C6.12125 3.75 5 4.87125 5 6.25C5 7.62875 6.12125 8.75 7.5 8.75ZM7.5 5C8.18937 5 8.75 5.56062 8.75 6.25C8.75 6.93937 8.18937 7.5 7.5 7.5C6.81062 7.5 6.25 6.93937 6.25 6.25C6.25 5.56062 6.81062 5 7.5 5Z" fill="#7A7A7A"/>
<path d="M7.13756 13.6337C7.24333 13.7093 7.37007 13.7499 7.50005 13.7499C7.63004 13.7499 7.75678 13.7093 7.86255 13.6337C8.05255 13.4994 12.5182 10.275 12.5001 6.25C12.5001 3.49313 10.2569 1.25 7.50005 1.25C4.74318 1.25 2.50006 3.49312 2.50006 6.24687C2.48193 10.275 6.94756 13.4994 7.13756 13.6337ZM7.50005 2.5C9.56818 2.5 11.2501 4.18188 11.2501 6.25313C11.2632 9.02688 8.50755 11.5175 7.50005 12.3344C6.49318 11.5169 3.73693 9.02562 3.75005 6.25C3.75005 4.18187 5.43193 2.5 7.50005 2.5Z" fill="#7A7A7A"/>
</svg>
