<svg width="20" height="20" viewBox="0 0 20 20" fill="none" xmlns="http://www.w3.org/2000/svg">
<path d="M4.16683 10.8337H14.0502L11.0252 14.467C10.9551 14.5513 10.9024 14.6485 10.8699 14.7531C10.8374 14.8578 10.8259 14.9678 10.836 15.0769C10.8563 15.2973 10.9633 15.5005 11.1335 15.642C11.3037 15.7834 11.5231 15.8515 11.7434 15.8312C11.9638 15.8109 12.167 15.7038 12.3085 15.5337L16.4752 10.5337C16.5032 10.4939 16.5283 10.4521 16.5502 10.4087C16.5502 10.367 16.5918 10.342 16.6085 10.3003C16.6463 10.2048 16.666 10.1031 16.6668 10.0003C16.666 9.89759 16.6463 9.79588 16.6085 9.70033C16.6085 9.65866 16.5668 9.63366 16.5502 9.59199C16.5283 9.54854 16.5032 9.50676 16.4752 9.46699L12.3085 4.46699C12.2301 4.37292 12.132 4.29727 12.0211 4.24542C11.9102 4.19357 11.7893 4.16679 11.6668 4.16699C11.4721 4.16661 11.2834 4.23443 11.1335 4.35866C11.0491 4.42862 10.9794 4.51454 10.9282 4.61149C10.8771 4.70845 10.8456 4.81454 10.8355 4.92368C10.8255 5.03283 10.8371 5.14289 10.8696 5.24756C10.9021 5.35223 10.955 5.44945 11.0252 5.53366L14.0502 9.16699H4.16683C3.94582 9.16699 3.73385 9.25479 3.57757 9.41107C3.42129 9.56735 3.3335 9.77931 3.3335 10.0003C3.3335 10.2213 3.42129 10.4333 3.57757 10.5896C3.73385 10.7459 3.94582 10.8337 4.16683 10.8337Z" fill="white"/>
</svg>
